<?xml version="1.0" encoding="iso-8859-1"?>
<!-- Generator: Adobe Illustrator 19.0.0, SVG Export Plug-In . SVG Version: 6.00 Build 0)  -->
<svg version="1.1" id="Layer_1" xmlns="http://www.w3.org/2000/svg" xmlns:xlink="http://www.w3.org/1999/xlink" x="0px" y="0px"
	 viewBox="0 0 512 512" style="enable-background:new 0 0 512 512;" xml:space="preserve">
<g>
	<g>
		<g>
			<path d="M511.999,150.182c-0.071-9.472-11.614-14.127-18.378-7.498L264.74,367.002c-4.853,4.758-12.626,4.759-17.48,0
				L18.38,142.684c-6.765-6.63-18.307-1.973-18.378,7.498C0,150.296,0,150.409,0,150.523v294.788
				c0,24.139,19.568,43.707,43.707,43.707h424.585c24.139,0,43.707-19.568,43.707-43.707V150.523
				C512,150.409,512,150.296,511.999,150.182z"/>
			<path d="M248.434,333.182c4.203,4.118,10.929,4.118,15.131,0l212.227-207.996c6.781-6.643,2.215-18.323-7.277-18.37
				c-0.074,0-0.147,0-0.222,0h-13.125V41.713c0-10.345-8.387-18.732-18.732-18.732H75.564c-10.345,0-18.732,8.387-18.732,18.732
				v65.103H43.707c-0.074,0-0.149,0-0.222,0c-9.492,0.047-14.058,11.727-7.278,18.371L248.434,333.182z M212.512,89.687h86.975
				c6.897,0,12.488,5.591,12.488,12.488s-5.591,12.488-12.488,12.488h-86.975c-6.897,0-12.488-5.591-12.488-12.488
				S205.615,89.687,212.512,89.687z M166.102,161.118H345.9c6.897,0,12.488,5.591,12.488,12.488
				c-0.001,6.896-5.592,12.488-12.489,12.488H166.102c-6.897,0-12.488-5.591-12.488-12.488S159.205,161.118,166.102,161.118z"/>
		</g>
	</g>
</g>
<g>
</g>
<g>
</g>
<g>
</g>
<g>
</g>
<g>
</g>
<g>
</g>
<g>
</g>
<g>
</g>
<g>
</g>
<g>
</g>
<g>
</g>
<g>
</g>
<g>
</g>
<g>
</g>
<g>
</g>
</svg>
